<svg xmlns="http://www.w3.org/2000/svg" viewBox="0 0 64 64" fill="none" width="64" height="64">
  <circle cx="32" cy="32" r="14" fill="#EAE6DF" opacity="0.8"/>
  <path d="M12 48 L52 48" stroke="#5C6053" stroke-width="1.5" stroke-linecap="round"/>
  <!-- Base shape -->

  <path d="M24 38 L40 38 C 44 38, 46 34, 46 30 C 46 26, 44 22, 40 22 L24 22 C 20 22, 18 26, 18 30 C 18 34, 20 38, 24 38 Z" stroke="#5C6053" stroke-width="1.5" stroke-linejoin="round"/>
  <path d="M46 26 C 50 26, 52 28, 52 30 C 52 32, 50 34, 46 34 M32 16 L32 22" stroke="#5C6053" stroke-width="1.5" stroke-linecap="round"/>
  <path d="M20 42 L28 42 L26 48 L14 48 L12 42 Z" stroke="#5C6053" stroke-width="1.5" stroke-linejoin="round"/>
  </svg>